<?xml version="1.0" encoding="UTF-8" standalone="no"?>
<!-- Generator: Gravit.io -->
<svg xmlns="http://www.w3.org/2000/svg" xmlns:xlink="http://www.w3.org/1999/xlink" style="isolation:isolate" viewBox="0 0 50 50" width="50pt" height="50pt"><defs><clipPath id="_clipPath_AiFv7AbjwwyXtuoiA9HPNzxVsQclcHlc"><rect width="50" height="50"/></clipPath></defs><g clip-path="url(#_clipPath_AiFv7AbjwwyXtuoiA9HPNzxVsQclcHlc)"><g><path d=" M 18.85 49.686 L 16.7 47.536 L 20.7 43.486 Q 13.9 42.736 9.45 40.186 Q 5 37.636 5 33.736 Q 5 29.786 10.825 27.011 Q 16.65 24.236 25 24.236 Q 33.4 24.236 39.2 27.011 Q 45 29.786 45 33.736 Q 45 36.686 41.8 38.936 Q 38.6 41.186 33.3 42.436 L 33.3 39.186 Q 37.3 38.186 39.65 36.586 Q 42 34.986 42 33.736 Q 42 32.136 37.825 29.686 Q 33.65 27.236 25 27.236 Q 16.4 27.236 12.2 29.686 Q 8 32.136 8 33.736 Q 8 35.986 10.875 37.611 Q 13.75 39.236 20.85 40.586 L 16.7 36.536 L 18.85 34.386 L 26.5 41.986 L 18.85 49.686 Z " fill="rgb(0,0,0)"/><g clip-path="url(#_clipPath_0rpYi2q1YJSnR2QTyFxrUuIwuYO14zLb)"><text transform="matrix(1,0,0,1,8,21.377)" style="font-family:'Open Sans';font-weight:600;font-size:20px;font-style:normal;fill:#000000;stroke:none;">360°</text></g><defs><clipPath id="_clipPath_0rpYi2q1YJSnR2QTyFxrUuIwuYO14zLb"><rect x="0" y="0" width="44" height="27.236" transform="matrix(1,0,0,1,8,0)"/></clipPath></defs></g></g></svg>