<?xml version="1.0" encoding="UTF-8" standalone="no"?>
<!-- Generator: Gravit.io -->
<svg xmlns="http://www.w3.org/2000/svg" xmlns:xlink="http://www.w3.org/1999/xlink" style="isolation:isolate" viewBox="0 0 500 500" width="500pt" height="500pt"><defs><clipPath id="_clipPath_Jgf0LyxhwQELpZhnKJdZPP2WZ9LwXzRj"><rect width="500" height="500"/></clipPath></defs><g clip-path="url(#_clipPath_Jgf0LyxhwQELpZhnKJdZPP2WZ9LwXzRj)"><rect width="500" height="500" style="fill:rgb(0,0,0)" fill-opacity="0"/><path d=" M 328.12 312.404 C 341.81 295.294 350 273.596 350 250 C 350 194.808 305.192 150 250 150 C 194.808 150 150 194.808 150 250 C 150 273.596 158.19 295.294 171.88 312.404 C 190.211 335.315 249 365 250 440 C 257 382 309.789 335.315 328.12 312.404 Z  M 250 440 L 205 366.5 L 171.88 312.404 L 182 276 L 250 293 L 318 276 L 328.12 312.404 L 295 366.5 L 250 440 Z " fill-rule="evenodd" fill="rgb(255,255,255)" vector-effect="non-scaling-stroke" stroke-width="18" stroke="rgb(0,0,0)" stroke-linejoin="miter" stroke-linecap="square" stroke-miterlimit="10"/><g><circle vector-effect="non-scaling-stroke" cx="250" cy="250" r="100" fill="rgb(255,255,255)"/><polygon points="250,440,160,293,340,293" fill="rgb(255,255,255)"/><circle vector-effect="non-scaling-stroke" cx="250" cy="250" r="50" fill="rgb(0,0,0)"/></g></g></svg>